<svg xmlns="http://www.w3.org/2000/svg" width="196.506" height="59.819" viewBox="0 0 196.506 59.819"><g transform="translate(-1.474 -1.006)"><path d="M38.463,59.192l1.75-4a9.4,9.4,0,0,0,2.173.86,9.064,9.064,0,0,0,2.435.394,3.24,3.24,0,0,0,1.867-.481,1.331,1.331,0,0,0,.7-1.065.982.982,0,0,0-.51-.744q-.51-.365-1.648-1.035l-.9-.525q-1.983-1.167-3.092-1.94a8.24,8.24,0,0,1-1.983-2,4.651,4.651,0,0,1-.875-2.771,4.951,4.951,0,0,1,.919-2.931,6.046,6.046,0,0,1,2.581-2.027,9.589,9.589,0,0,1,3.879-.729,11.678,11.678,0,0,1,3.106.438,9.365,9.365,0,0,1,2.727,1.2l-1.575,3.587a22.375,22.375,0,0,0-2.377-.7,8.858,8.858,0,0,0-1.823-.175,2.283,2.283,0,0,0-1.415.408,1.21,1.21,0,0,0-.54.992.958.958,0,0,0,.452.773,12.679,12.679,0,0,0,1.5.89l1.05.583a33.973,33.973,0,0,1,3.063,1.94,9.094,9.094,0,0,1,2.085,2.1,4.594,4.594,0,0,1,.86,2.727,4.949,4.949,0,0,1-.963,3,6.41,6.41,0,0,1-2.756,2.071,10.685,10.685,0,0,1-4.185.758,14.7,14.7,0,0,1-3.456-.467A11.409,11.409,0,0,1,38.463,59.192Zm36.017,1.225H59.954V40.583H73.108l.5,4.171H65.262v3.617h6.1l.5,4.171H65.262v3.7h8.721Zm21.608,0H81.563V40.583H94.717l.5,4.171H86.871v3.617h6.1l.5,4.171H86.871v3.7h8.721Zm24.642,0h-5.308V52.658h-6.942v7.758h-5.308V40.583l5.308-.175v8.079h6.942v-7.9h5.308Zm17.612-20.242a10.73,10.73,0,0,1,5.469,1.342,9.113,9.113,0,0,1,3.558,3.675,10.891,10.891,0,0,1,1.24,5.192,11.1,11.1,0,0,1-1.3,5.41,9.309,9.309,0,0,1-3.631,3.7,11.434,11.434,0,0,1-10.748-.029,9.311,9.311,0,0,1-3.573-3.69,10.789,10.789,0,0,1-1.254-5.192,10.945,10.945,0,0,1,1.313-5.381,9.408,9.408,0,0,1,3.646-3.7A10.488,10.488,0,0,1,138.342,40.175Zm-4.783,10.383a6.647,6.647,0,0,0,1.269,4.2,4.171,4.171,0,0,0,3.485,1.633,4.408,4.408,0,0,0,3.485-1.56,6.576,6.576,0,0,0,1.356-4.448,6.437,6.437,0,0,0-1.3-4.156,4.444,4.444,0,0,0-5.892-.875,5.216,5.216,0,0,0-1.75,2.1A7.046,7.046,0,0,0,133.558,50.558Zm33.071,3.879-2.129.292-3.208-3.908v9.6h-5.308V40.583h3.646l5.979,7.554,5.483-7.554h3.529V60.417h-5.308v-9.6Zm31.35,5.979H183.454V40.583h13.154l.5,4.171h-8.342v3.617h6.1l.5,4.171h-6.592v3.7h8.721Z" fill="#fa983a" fill-rule="evenodd"/><path d="M4.419-22.88h0a4.167,4.167,0,0,0,0,5.893l12.93,12.93a10.417,10.417,0,0,0,14.731,0L51.514-23.49a8.333,8.333,0,0,0,0-11.785,8.333,8.333,0,0,0-5.893-2.441v8.333L26.188-9.95a2.083,2.083,0,0,1-2.946,0L10.312-22.88A4.167,4.167,0,0,0,4.419-22.88Z" transform="translate(55.428) rotate(180)" fill="#fa983a"/></g></svg>