<?xml version="1.0" standalone="no"?>
<!DOCTYPE svg PUBLIC "-//W3C//DTD SVG 20010904//EN"
 "http://www.w3.org/TR/2001/REC-SVG-20010904/DTD/svg10.dtd">
<svg version="1.0" xmlns="http://www.w3.org/2000/svg"
 width="128.000000pt" height="128.000000pt" viewBox="0 0 128.000000 128.000000"
 preserveAspectRatio="xMidYMid meet">
<metadata>
Created by potrace 1.16, written by Peter Selinger 2001-2019
</metadata>
<g transform="translate(0.000000,128.000000) scale(0.100000,-0.100000)"
fill="#000000" stroke="none">
<path d="M135 1160 l-39 -40 81 -83 82 -82 -59 -34 c-32 -18 -80 -53 -107 -76
l-48 -44 56 -56 56 -57 68 52 c38 29 88 62 112 73 l43 21 55 -54 54 -53 -53
-22 c-57 -23 -105 -53 -149 -94 l-27 -25 52 -53 c29 -29 56 -53 60 -53 4 0 29
15 55 34 54 38 128 66 176 66 28 0 54 -22 219 -187 l188 -188 42 43 43 42
-455 455 c-250 250 -457 455 -460 455 -3 0 -24 -18 -45 -40z"/>
<path d="M538 1043 c-27 -2 -48 -7 -48 -11 0 -4 30 -37 68 -73 l67 -66 87 -12
c142 -19 230 -55 344 -142 l67 -51 56 56 55 55 -24 27 c-33 35 -173 126 -235
153 -116 51 -297 77 -437 64z"/>
<path d="M529 417 c-24 -13 -45 -30 -47 -38 -1 -8 34 -50 78 -94 l80 -80 80
80 c44 44 79 86 78 94 -6 30 -87 61 -158 61 -51 0 -77 -6 -111 -23z"/>
</g>
</svg>
