<?xml version="1.0" standalone="no"?>
<!DOCTYPE svg PUBLIC "-//W3C//DTD SVG 20010904//EN"
 "http://www.w3.org/TR/2001/REC-SVG-20010904/DTD/svg10.dtd">
<svg version="1.0" xmlns="http://www.w3.org/2000/svg"
 width="344.000000pt" height="344.000000pt" viewBox="0 0 344.000000 344.000000"
 preserveAspectRatio="xMidYMid meet">

<g transform="translate(0.000000,344.000000) scale(0.100000,-0.100000)"
fill="#000000" stroke="none">
<path d="M510 3308 c-70 -48 -75 -62 -78 -244 l-3 -164 -57 0 c-103 0 -197
-63 -241 -160 -20 -44 -21 -60 -21 -1235 l0 -1190 24 -50 c29 -60 76 -107 136
-134 45 -20 59 -21 1450 -21 l1405 0 50 24 c60 29 107 76 134 136 20 44 21 60
21 1235 0 1175 -1 1191 -21 1235 -44 97 -138 160 -241 160 l-57 0 -3 164 c-3
182 -8 196 -78 244 -29 19 -46 22 -135 22 -89 0 -106 -3 -135 -22 -70 -48 -75
-62 -78 -244 l-3 -164 -859 0 -859 0 -3 164 c-3 182 -8 196 -78 244 -29 19
-46 22 -135 22 -89 0 -106 -3 -135 -22z m228 -100 c9 -9 12 -90 12 -304 0
-253 -2 -295 -16 -308 -11 -12 -35 -16 -89 -16 -54 0 -78 4 -89 16 -14 13 -16
55 -16 308 0 214 3 295 12 304 16 16 170 16 186 0z m2150 0 c9 -9 12 -90 12
-304 0 -253 -2 -295 -16 -308 -11 -12 -35 -16 -89 -16 -54 0 -78 4 -89 16 -14
13 -16 55 -16 308 0 214 3 295 12 304 16 16 170 16 186 0z m-2458 -515 c0
-119 20 -163 89 -200 62 -33 187 -33 251 0 70 34 90 79 90 200 l0 97 860 0
860 0 0 -97 c0 -119 20 -163 89 -200 62 -33 187 -33 251 0 70 34 90 79 90 200
l0 97 53 0 c62 0 108 -24 137 -72 19 -31 20 -51 20 -355 l0 -323 -1500 0
-1500 0 0 323 c0 304 1 324 20 355 29 48 75 72 138 72 l52 0 0 -97z m2790
-1567 l0 -803 -23 -33 c-12 -19 -38 -43 -57 -54 -35 -21 -41 -21 -1420 -21
-1379 0 -1385 0 -1420 21 -19 11 -45 35 -57 54 l-23 33 0 803 0 804 1500 0
1500 0 0 -804z"/>
<path d="M1089 2613 c-11 -12 -14 -58 -14 -195 0 -177 0 -180 24 -199 22 -18
47 -19 621 -19 574 0 599 1 621 19 24 19 24 22 24 199 0 137 -3 183 -14 195
-12 16 -69 17 -631 17 -562 0 -619 -1 -631 -17z m1169 -195 l3 -108 -541 0
-540 0 0 103 c0 57 3 107 7 110 3 4 245 6 537 5 l531 -3 3 -107z"/>
<path d="M440 1751 c-5 -11 -10 -85 -10 -170 0 -123 3 -152 16 -165 23 -24
375 -24 398 0 13 13 16 42 16 165 0 85 -5 159 -10 170 -10 18 -23 19 -205 19
-182 0 -195 -1 -205 -19z m310 -166 l0 -85 -105 0 -105 0 0 85 0 85 105 0 105
0 0 -85z"/>
<path d="M1140 1751 c-5 -11 -10 -85 -10 -170 0 -123 3 -152 16 -165 13 -13
45 -16 198 -16 164 0 185 2 199 18 24 27 25 312 1 336 -13 13 -46 16 -204 16
-177 0 -190 -1 -200 -19z m310 -166 l0 -85 -105 0 -105 0 0 85 0 85 105 0 105
0 0 -85z"/>
<path d="M1896 1754 c-13 -13 -16 -43 -16 -168 0 -135 2 -155 18 -169 27 -25
372 -25 396 -1 13 13 16 42 16 165 0 85 -5 159 -10 170 -10 18 -23 19 -200 19
-158 0 -191 -3 -204 -16z m304 -169 l0 -85 -105 0 -105 0 0 85 0 85 105 0 105
0 0 -85z"/>
<path d="M2590 1751 c-5 -11 -10 -85 -10 -170 0 -123 3 -152 16 -165 23 -24
375 -24 398 0 13 13 16 42 16 165 0 85 -5 159 -10 170 -10 18 -23 19 -205 19
-182 0 -195 -1 -205 -19z m310 -166 l0 -85 -105 0 -105 0 0 85 0 85 105 0 105
0 0 -85z"/>
<path d="M450 1220 c-18 -18 -20 -33 -20 -173 0 -136 2 -156 18 -170 16 -15
45 -17 199 -17 162 0 182 2 196 18 14 16 17 43 17 170 0 204 14 192 -215 192
-162 0 -177 -2 -195 -20z m300 -170 l0 -80 -105 0 -105 0 0 80 0 80 105 0 105
0 0 -80z"/>
<path d="M1152 1224 c-21 -15 -22 -21 -22 -173 0 -140 2 -160 18 -174 16 -15
45 -17 199 -17 162 0 182 2 196 18 14 16 17 43 17 170 0 204 13 192 -213 192
-140 0 -177 -3 -195 -16z m298 -174 l0 -80 -105 0 -105 0 0 80 0 80 105 0 105
0 0 -80z"/>
<path d="M1900 1220 c-18 -18 -20 -33 -20 -173 0 -136 2 -156 18 -170 16 -15
45 -17 199 -17 162 0 182 2 196 18 14 16 17 43 17 175 0 200 15 187 -217 187
-160 0 -175 -2 -193 -20z m300 -170 l0 -80 -105 0 -105 0 0 80 0 80 105 0 105
0 0 -80z"/>
<path d="M2600 1220 c-18 -18 -20 -33 -20 -173 0 -136 2 -156 18 -170 16 -15
45 -17 199 -17 162 0 182 2 196 18 14 16 17 43 17 170 0 204 14 192 -215 192
-162 0 -177 -2 -195 -20z m300 -170 l0 -80 -105 0 -105 0 0 80 0 80 105 0 105
0 0 -80z"/>
<path d="M2165 609 c-55 -66 -106 -128 -113 -137 -11 -14 -19 -10 -72 43 l-60
60 -37 -38 -38 -37 85 -85 c87 -87 109 -102 134 -88 7 4 75 82 151 173 l137
164 -38 33 c-22 18 -41 33 -44 33 -3 0 -50 -55 -105 -121z"/>
<path d="M2799 595 c-61 -74 -115 -135 -118 -135 -3 0 -31 26 -63 57 l-58 58
-37 -38 -38 -37 80 -81 c90 -90 108 -103 135 -94 10 3 74 72 141 153 67 81
129 155 137 165 14 16 13 20 -18 52 -19 19 -37 35 -41 35 -4 0 -58 -61 -120
-135z"/>
<path d="M447 682 c-14 -16 -17 -43 -17 -175 0 -200 -15 -187 215 -187 230 0
215 -13 215 189 0 140 -2 160 -18 174 -16 15 -45 17 -199 17 -162 0 -182 -2
-196 -18z m303 -172 l0 -80 -105 0 -105 0 0 80 0 80 105 0 105 0 0 -80z"/>
<path d="M1147 682 c-14 -16 -17 -43 -17 -175 0 -200 -15 -187 217 -187 226 0
213 -12 213 190 0 202 14 190 -218 190 -161 0 -181 -2 -195 -18z m303 -172 l0
-80 -105 0 -105 0 0 80 0 80 105 0 105 0 0 -80z"/>
</g>
</svg>
