<svg xmlns="http://www.w3.org/2000/svg" width="24.487" height="23.939" viewBox="0 0 24.487 23.939"><path d="M25.282,12.88l-9.1,7.282A3.141,3.141,0,0,0,15,22.614V32.99a3.141,3.141,0,0,0,3.141,3.141H36.346a3.141,3.141,0,0,0,3.141-3.141V22.614a3.141,3.141,0,0,0-1.179-2.452l-9.1-7.282A3.141,3.141,0,0,0,25.282,12.88ZM17.226,32.335V22.973a1.57,1.57,0,0,1,.589-1.226l8.447-6.758a1.57,1.57,0,0,1,1.962,0l8.447,6.758a1.57,1.57,0,0,1,.589,1.226v9.362a1.57,1.57,0,0,1-1.57,1.57H18.8A1.57,1.57,0,0,1,17.226,32.335Zm4.452-2.882a1.113,1.113,0,1,0,0,2.226h11.13a1.113,1.113,0,1,0,0-2.226Z" transform="translate(-15 -12.192)" fill="#9197a2"/></svg>