<?xml version="1.0" standalone="no"?>
<!DOCTYPE svg PUBLIC "-//W3C//DTD SVG 20010904//EN"
 "http://www.w3.org/TR/2001/REC-SVG-20010904/DTD/svg10.dtd">
<svg version="1.0" xmlns="http://www.w3.org/2000/svg"
 width="688.000000pt" height="854.000000pt" viewBox="0 0 688.000000 854.000000"
 preserveAspectRatio="xMidYMid meet">
<metadata>
Created by potrace 1.16, written by Peter Selinger 2001-2019
</metadata>
<g transform="translate(0.000000,854.000000) scale(0.100000,-0.100000)"
fill="#000000" stroke="none">
<path d="M0 7600 l0 -940 205 0 205 0 0 551 0 551 27 -7 c15 -3 30 -10 33 -15
3 -4 20 -11 38 -15 17 -3 32 -10 32 -15 0 -4 23 -14 50 -21 28 -7 50 -16 50
-20 0 -4 14 -10 30 -14 17 -4 30 -11 30 -15 0 -5 16 -12 35 -16 19 -3 35 -10
35 -14 0 -4 20 -13 45 -20 25 -7 45 -16 45 -20 0 -4 15 -11 34 -14 19 -4 36
-10 38 -14 6 -13 87 -52 107 -52 12 0 21 -4 21 -10 0 -5 18 -15 40 -21 22 -7
40 -15 40 -19 0 -4 16 -11 35 -14 19 -4 35 -11 35 -16 0 -6 5 -10 11 -10 5 0
29 -9 52 -19 24 -11 55 -23 70 -26 15 -4 27 -11 27 -15 0 -5 14 -11 30 -15 17
-4 30 -10 30 -15 0 -4 16 -11 35 -14 19 -4 35 -11 35 -16 0 -4 23 -14 50 -21
28 -7 50 -16 50 -20 0 -4 14 -10 30 -14 17 -4 30 -11 30 -15 0 -5 16 -12 35
-16 19 -3 35 -10 35 -14 0 -4 20 -13 45 -20 25 -7 45 -16 45 -20 0 -4 15 -11
34 -14 19 -4 37 -14 40 -22 3 -9 6 -355 6 -770 l0 -754 115 0 c63 0 115 -4
115 -8 0 -5 -22 -14 -50 -21 -27 -7 -50 -17 -50 -21 0 -5 -16 -12 -35 -16 -19
-3 -35 -10 -35 -14 0 -5 -13 -11 -30 -15 -16 -4 -30 -10 -30 -15 0 -4 -12 -11
-27 -15 -15 -3 -46 -15 -70 -26 -23 -10 -45 -19 -48 -19 -4 0 -13 -7 -21 -15
-9 -8 -26 -15 -40 -15 -13 0 -24 -4 -24 -8 0 -5 -18 -15 -40 -22 -22 -7 -40
-17 -40 -22 0 -4 -9 -8 -21 -8 -21 0 -101 -39 -107 -52 -2 -5 -14 -8 -27 -8
-13 0 -30 -6 -38 -14 -7 -8 -33 -20 -55 -27 -23 -7 -42 -15 -42 -19 0 -4 -16
-11 -35 -14 -19 -4 -35 -11 -35 -16 0 -4 -13 -11 -30 -15 -16 -4 -30 -10 -30
-14 0 -4 -23 -13 -50 -20 -27 -7 -50 -17 -50 -21 0 -5 -16 -12 -35 -16 -19 -3
-35 -10 -35 -14 0 -5 -13 -11 -30 -15 -16 -4 -30 -10 -30 -15 0 -5 -15 -12
-32 -16 -18 -3 -49 -15 -68 -25 -19 -11 -40 -19 -47 -19 -7 0 -13 -4 -13 -10
0 -5 -16 -12 -35 -16 -19 -3 -35 -10 -35 -14 0 -4 -18 -12 -40 -19 -22 -6 -40
-16 -40 -21 0 -6 -9 -10 -21 -10 -18 0 -97 -37 -109 -51 -3 -3 -16 -8 -30 -11
-14 -3 -33 -9 -42 -13 -17 -7 -18 25 -20 541 l-3 549 -202 3 -203 2 0 -945 0
-945 975 0 975 0 0 200 0 200 -560 0 -561 0 18 25 c10 13 27 27 38 31 11 3 32
19 47 35 15 16 31 29 37 29 5 0 14 6 18 13 4 8 27 26 50 41 23 15 44 34 47 42
3 8 10 14 16 14 6 0 25 13 43 30 18 16 35 30 39 30 3 0 20 14 36 30 17 17 35
30 42 30 6 0 13 7 17 15 3 9 18 22 33 30 15 8 38 25 51 39 13 14 28 26 32 26
4 0 21 14 37 30 16 17 34 30 39 30 5 0 21 13 34 30 14 16 30 30 36 30 10 0 35
20 98 77 20 18 40 33 44 33 5 0 22 13 37 30 16 17 33 30 39 30 5 0 20 13 33
30 14 16 30 29 36 30 7 0 22 11 35 25 13 13 29 25 34 25 6 0 21 14 35 30 14
17 30 30 36 30 6 0 27 15 47 33 19 17 47 41 62 52 15 11 43 35 62 53 20 17 40
32 45 32 5 0 23 15 40 32 l32 33 419 3 420 3 -8 -313 c-4 -172 -11 -315 -15
-318 -4 -3 -11 -105 -15 -227 -4 -123 -10 -223 -14 -223 -4 0 -13 -129 -20
-287 -7 -159 -17 -290 -21 -293 -4 -3 -11 -83 -15 -177 -4 -95 -11 -173 -15
-173 -4 0 -11 -80 -15 -177 -4 -98 -11 -180 -15 -183 -4 -3 -12 -84 -18 -180
-6 -96 -16 -222 -21 -280 -5 -58 -9 -116 -10 -129 l-1 -24 -142 7 c-78 3 -145
10 -148 15 -3 5 -34 12 -70 16 -36 4 -69 11 -75 15 -5 4 -43 13 -82 20 -40 6
-73 15 -73 20 0 4 -22 11 -50 15 -27 4 -50 10 -50 15 0 4 -20 11 -45 14 -25 4
-45 10 -45 14 0 4 -30 13 -67 20 -37 7 -70 17 -73 21 -3 5 -30 12 -60 16 -30
4 -58 12 -61 17 -3 5 -43 12 -88 15 -44 3 -81 10 -81 14 0 12 -86 11 -108 -1
-9 -5 -43 -12 -74 -15 -32 -4 -58 -10 -58 -15 0 -5 -14 -11 -31 -15 -35 -8
-39 -11 -123 -90 -33 -30 -62 -55 -65 -55 -3 0 -19 -20 -34 -45 -16 -25 -32
-45 -37 -45 -10 0 -20 -39 -13 -55 2 -8 18 -17 34 -20 16 -4 29 -10 29 -15 0
-5 14 -11 31 -15 17 -4 33 -13 36 -20 2 -8 18 -17 34 -20 16 -4 29 -10 29 -15
0 -5 14 -11 30 -15 17 -4 30 -11 30 -16 0 -5 15 -15 33 -24 32 -14 67 -35 77
-45 10 -10 46 -31 73 -43 15 -6 27 -14 27 -18 0 -4 14 -12 30 -19 17 -7 30
-16 30 -21 0 -5 7 -9 15 -9 9 0 18 -7 21 -15 4 -8 10 -15 14 -15 13 0 90 -53
90 -62 0 -4 7 -8 15 -8 9 0 18 -7 21 -15 4 -8 12 -15 19 -15 6 0 25 -11 41
-25 34 -30 37 -33 83 -65 19 -14 47 -37 61 -52 15 -16 30 -28 34 -28 10 0 286
-276 286 -286 0 -4 15 -22 32 -39 18 -18 49 -56 68 -84 19 -28 50 -70 68 -92
17 -23 32 -47 32 -55 0 -8 4 -14 9 -14 5 0 14 -13 21 -29 6 -16 18 -32 26 -35
8 -3 14 -12 14 -21 0 -8 4 -15 10 -15 5 0 12 -11 16 -25 3 -14 10 -25 15 -25
4 0 14 -18 20 -40 7 -22 16 -40 21 -40 4 0 8 -7 8 -15 0 -9 6 -18 14 -21 8 -3
18 -19 21 -35 4 -16 10 -29 14 -29 4 0 13 -17 19 -39 7 -21 19 -44 27 -51 8
-7 15 -19 15 -26 0 -8 4 -14 9 -14 5 0 12 -12 16 -27 3 -15 10 -30 13 -33 10
-8 62 -115 62 -128 0 -7 4 -12 9 -12 5 0 12 -14 16 -30 4 -17 10 -30 15 -30 5
0 12 -15 15 -33 4 -17 12 -35 16 -38 5 -3 14 -33 20 -67 6 -34 15 -62 19 -62
5 0 12 -30 16 -68 3 -37 11 -70 16 -73 4 -3 11 -65 15 -137 l6 -132 1129 0
1128 0 0 430 c0 256 4 437 10 448 5 9 14 50 21 90 6 39 15 72 19 72 5 0 11 13
15 30 4 16 10 30 15 30 4 0 11 16 14 35 4 19 11 35 16 35 5 0 14 16 21 35 7
19 17 35 21 35 4 0 8 6 8 13 0 8 9 24 20 37 11 13 20 29 20 37 0 7 4 13 9 13
5 0 15 16 21 35 6 19 16 35 21 35 5 0 11 11 15 25 3 14 10 25 15 25 5 0 9 7 9
15 0 9 7 18 15 21 8 4 15 10 15 15 0 12 52 93 63 97 4 2 7 10 7 17 0 8 6 20
13 27 6 7 26 40 42 73 17 33 35 65 40 72 6 7 15 19 22 27 7 8 15 26 19 40 3
14 9 26 13 26 5 0 14 18 21 40 7 22 17 40 22 40 4 0 8 11 8 24 0 14 7 32 16
40 8 9 18 32 21 51 3 19 9 35 14 35 4 0 13 25 20 55 7 30 15 55 19 55 4 0 10
23 14 50 4 28 11 50 15 50 5 0 12 30 16 68 4 37 12 73 18 80 15 18 16 370 1
380 -6 4 -14 23 -18 41 -8 42 -37 111 -47 111 -3 0 -12 20 -19 44 -7 25 -18
47 -26 50 -8 3 -14 12 -14 21 0 8 -4 15 -9 15 -5 0 -12 8 -15 18 -3 9 -19 31
-36 49 -16 18 -30 35 -30 38 0 10 -278 285 -287 285 -5 0 -20 13 -33 28 -14
15 -43 41 -65 57 -22 17 -51 42 -65 58 -13 15 -28 27 -32 27 -4 0 -24 16 -44
35 -19 19 -40 35 -46 35 -5 0 -21 14 -35 30 -13 17 -31 30 -39 30 -8 0 -14 5
-14 10 0 6 -12 16 -27 23 -16 6 -32 17 -36 24 -4 7 -15 13 -22 13 -8 0 -15 4
-15 9 0 10 -101 61 -119 61 -6 0 -11 4 -11 9 0 5 -11 12 -25 15 -14 4 -25 10
-25 15 0 5 -13 12 -30 16 -16 4 -30 10 -30 15 0 4 -22 13 -50 20 -27 7 -50 16
-50 20 0 4 -20 11 -45 14 -25 4 -45 11 -45 16 0 6 -18 13 -40 16 -22 4 -43 10
-45 14 -3 5 -38 14 -78 21 -39 7 -74 16 -77 20 -3 5 -43 11 -88 15 -45 4 -82
11 -82 15 0 5 -58 9 -130 9 -71 0 -130 -4 -130 -9 0 -5 -22 -12 -50 -16 -27
-4 -50 -10 -50 -15 0 -4 -11 -11 -24 -14 -29 -7 -86 -62 -86 -82 0 -8 -4 -14
-9 -14 -11 0 -1 473 11 481 5 3 9 231 10 518 l2 512 416 -3 416 -3 32 -32 c17
-18 35 -33 39 -33 4 0 19 -12 32 -26 13 -14 37 -32 53 -40 15 -8 28 -19 28
-25 0 -5 8 -13 18 -16 9 -4 30 -19 45 -35 16 -15 32 -28 37 -28 5 0 22 -13 38
-30 17 -16 34 -30 39 -30 4 0 19 -12 32 -25 13 -14 28 -25 35 -25 6 -1 22 -14
36 -30 13 -17 30 -30 37 -30 7 0 13 -4 13 -9 0 -4 19 -21 43 -36 23 -16 46
-34 50 -42 4 -7 13 -13 20 -13 7 -1 23 -14 37 -30 13 -17 30 -30 37 -30 6 0
16 -6 20 -13 4 -7 22 -23 38 -35 61 -45 76 -58 112 -89 20 -18 40 -33 44 -33
5 0 22 -13 37 -30 16 -16 33 -30 39 -30 5 0 20 -13 33 -30 14 -16 30 -29 36
-30 6 0 21 -11 34 -25 13 -14 28 -25 34 -25 6 -1 22 -14 36 -30 13 -17 28 -30
33 -30 5 0 14 -6 21 -12 7 -7 25 -22 40 -33 16 -11 40 -31 55 -45 15 -14 35
-30 46 -36 58 -32 34 -34 -529 -34 l-556 0 0 -200 0 -200 975 0 975 0 0 945 0
945 -202 -2 -203 -3 -3 -552 c-2 -482 -4 -553 -17 -553 -8 0 -15 4 -15 9 0 5
-13 12 -30 16 -16 4 -30 10 -30 15 0 4 -16 11 -35 14 -19 4 -35 11 -35 16 0 6
-6 10 -13 10 -7 0 -29 9 -50 19 -20 10 -49 22 -64 26 -15 3 -30 10 -33 13 -7
10 -70 39 -112 52 -21 6 -38 15 -38 20 0 5 -17 12 -37 16 -21 4 -44 13 -51 21
-7 7 -20 13 -28 13 -8 0 -14 4 -14 9 0 5 -22 14 -50 21 -27 7 -50 16 -50 20 0
5 -13 11 -30 15 -16 4 -30 11 -30 15 0 5 -16 12 -35 16 -19 3 -35 10 -35 14 0
4 -20 13 -45 20 -25 7 -45 16 -45 20 0 4 -16 11 -35 14 -19 4 -35 11 -35 16 0
4 -13 11 -30 15 -16 4 -30 10 -30 15 0 4 -16 11 -35 14 -19 4 -35 11 -35 15 0
5 -20 14 -45 21 -25 7 -45 16 -45 20 0 4 -15 11 -34 14 -19 4 -36 10 -38 14
-4 9 -64 38 -110 52 -21 6 -38 15 -38 20 0 5 -17 12 -37 16 -21 4 -40 10 -43
13 -9 13 -86 48 -118 56 -65 14 -29 25 83 25 l115 0 0 771 c0 631 2 773 13
784 8 7 33 19 55 26 23 7 42 15 42 19 0 4 16 11 35 14 19 4 35 11 35 16 0 4
14 11 30 15 17 4 30 10 30 14 0 4 23 13 50 20 28 7 50 17 50 21 0 5 16 12 35
16 19 3 35 10 35 14 0 5 14 11 30 15 17 4 30 10 30 15 0 4 12 11 27 15 15 3
46 15 70 26 23 10 47 19 52 19 6 0 11 4 11 10 0 5 16 12 35 16 19 3 35 10 35
14 0 4 18 12 40 19 22 6 40 16 40 21 0 6 9 10 21 10 20 0 101 39 107 52 2 4
19 10 38 14 19 3 34 10 34 14 0 4 20 13 45 20 25 7 45 16 45 20 0 4 16 11 35
14 19 4 35 11 35 16 0 4 14 11 30 15 17 4 30 10 30 14 0 4 23 13 50 20 28 7
50 17 50 21 0 5 15 12 33 15 17 4 34 11 37 15 3 5 18 12 33 15 l27 7 0 -551 0
-551 205 0 205 0 0 940 0 940 -975 0 -975 0 0 -195 0 -195 567 0 567 0 -45
-32 c-24 -18 -48 -38 -52 -45 -4 -7 -13 -13 -20 -13 -7 0 -23 -13 -37 -30 -14
-16 -30 -30 -36 -30 -6 0 -27 -15 -47 -32 -19 -18 -47 -42 -62 -53 -15 -11
-40 -32 -57 -47 -16 -16 -33 -28 -38 -28 -5 0 -25 -16 -44 -35 -20 -19 -40
-35 -44 -35 -4 0 -19 -13 -32 -30 -14 -16 -30 -29 -36 -30 -7 0 -22 -11 -35
-25 -13 -13 -28 -25 -32 -25 -5 0 -21 -12 -37 -27 -15 -16 -40 -37 -56 -48
-15 -11 -33 -26 -40 -32 -7 -7 -16 -13 -21 -13 -4 0 -19 -13 -33 -30 -14 -16
-30 -30 -36 -30 -7 0 -22 -11 -35 -25 -13 -13 -28 -25 -34 -25 -5 -1 -21 -14
-35 -30 -13 -17 -29 -30 -36 -30 -7 0 -24 -13 -37 -30 -14 -16 -30 -30 -35
-30 -5 0 -20 -10 -34 -22 -14 -13 -40 -35 -58 -50 l-32 -28 -1448 0 -1448 0
-32 28 c-18 15 -44 37 -58 50 -14 12 -29 22 -34 22 -5 0 -21 14 -35 30 -13 17
-30 30 -37 30 -7 0 -23 13 -36 30 -14 16 -29 29 -35 30 -5 0 -21 12 -34 25
-13 14 -28 25 -35 25 -6 0 -22 14 -36 30 -14 17 -29 30 -33 30 -5 0 -14 6 -21
13 -7 6 -25 21 -40 32 -16 11 -41 32 -56 48 -16 15 -32 27 -37 27 -4 0 -19 12
-32 25 -13 14 -28 25 -35 25 -6 1 -22 14 -36 30 -13 17 -28 30 -32 30 -5 0
-22 14 -38 30 -16 17 -33 30 -38 30 -5 0 -25 15 -45 33 -19 17 -47 41 -62 52
-15 11 -43 35 -62 53 -20 17 -41 32 -47 32 -6 0 -22 14 -36 30 -14 17 -30 30
-37 30 -7 0 -16 6 -20 13 -4 7 -28 27 -52 45 l-45 32 567 0 567 0 0 195 0 195
-975 0 -975 0 0 -940z"/>
</g>
</svg>
